<svg width="1422" height="1422" xmlns="http://www.w3.org/2000/svg" xmlns:xlink="http://www.w3.org/1999/xlink" overflow="hidden"><defs><clipPath id="clip0"><rect x="1535" y="396" width="1422" height="1422"/></clipPath><clipPath id="clip1"><rect x="1867" y="728" width="758" height="757"/></clipPath><clipPath id="clip2"><rect x="1867" y="728" width="758" height="757"/></clipPath><clipPath id="clip3"><rect x="1867" y="728" width="758" height="757"/></clipPath></defs><g clip-path="url(#clip0)" transform="translate(-1535 -396)"><path d="M1537.5 1107C1537.5 715.706 1854.71 398.5 2246 398.5 2637.29 398.5 2954.5 715.706 2954.5 1107 2954.5 1498.29 2637.29 1815.5 2246 1815.5 1854.71 1815.5 1537.5 1498.29 1537.5 1107Z"  stroke-width="4.58333" stroke-miterlimit="8" fill="none" fill-rule="evenodd"/><path d="M1642.5 1107C1642.5 773.696 1912.7 503.5 2246 503.5 2579.3 503.5 2849.5 773.696 2849.5 1107 2849.5 1440.3 2579.3 1710.5 2246 1710.5 1912.7 1710.5 1642.5 1440.3 1642.5 1107Z" stroke-width="4.58333" stroke-miterlimit="8" fill="none" fill-rule="evenodd"/><g clip-path="url(#clip1)"><g clip-path="url(#clip2)"><g clip-path="url(#clip3)"><path d="M2217.47 1169.58 2160.41 1169.58C2113.87 1169.44 2076.18 1131.75 2076.04 1085.21L2076.04 1035.53 2133.09 1035.53C2179.64 1035.66 2217.34 1073.36 2217.47 1119.91ZM2091.8 1085.21C2091.92 1123.05 2122.56 1153.69 2160.4 1153.81L2201.67 1153.81 2201.67 1119.91C2201.55 1082.07 2170.91 1051.42 2133.07 1051.3L2091.8 1051.3Z" stroke="#000000" stroke-width="7.88537" fill="none"/><path d="M2270.2 1295.75 2222.89 1295.75C2209.83 1295.75 2199.23 1285.16 2199.23 1272.09 2199.23 1259.03 2209.83 1248.44 2222.89 1248.44L2270.2 1248.44C2283.27 1248.44 2293.86 1259.03 2293.86 1272.09 2293.86 1285.16 2283.27 1295.75 2270.2 1295.75ZM2222.89 1264.21C2218.54 1264.21 2215.01 1267.74 2215.01 1272.09 2215.01 1276.45 2218.54 1279.98 2222.89 1279.98L2270.2 1279.98C2274.56 1279.98 2278.09 1276.45 2278.09 1272.09 2278.09 1267.74 2274.56 1264.21 2270.2 1264.21Z" stroke="#000000" stroke-width="7.88537" fill="none"/><path d="M2332.69 1169.58 2275.62 1169.58 2275.62 1119.91C2275.76 1073.34 2313.49 1035.64 2360.05 1035.53L2417.11 1035.53 2417.11 1085.21C2416.97 1131.77 2379.25 1169.48 2332.69 1169.58ZM2291.39 1153.81 2332.68 1153.81C2370.52 1153.7 2401.17 1123.05 2401.28 1085.21L2401.28 1051.3 2360.05 1051.3C2322.21 1051.43 2291.57 1082.07 2291.45 1119.91Z" stroke="#000000" stroke-width="7.88537" fill="none"/><path d="M2246.96 1390.38C2239.59 1390.39 2232.37 1388.27 2226.18 1384.27 2175.43 1351.41 2009.85 1231.44 2009.85 1067.28 2009.85 1064.83 2009.85 1062.38 2009.98 1059.92 2013.47 929.753 2121.83 827.067 2252 830.564 2316.75 832.304 2377.93 860.604 2421.18 908.821 2464.9 957.325 2487.05 1021.51 2482.53 1086.66 2470.74 1246.86 2314.67 1355.22 2267.11 1384.63 2261.06 1388.39 2254.08 1390.38 2246.96 1390.38ZM2246.37 846.281C2127.09 846.36 2029.4 941.124 2025.71 1060.35 2025.63 1062.64 2025.59 1064.93 2025.59 1067.21 2025.59 1223.46 2185.66 1339.25 2234.72 1371 2242.03 1375.7 2251.38 1375.78 2258.78 1371.22 2304.73 1342.79 2455.53 1238.23 2466.77 1085.5 2470.99 1024.65 2450.31 964.689 2409.47 919.379 2369.71 874.603 2313.25 848.199 2253.4 846.392L2253.4 846.392C2251.05 846.281 2248.71 846.281 2246.37 846.281Z" stroke="#000000" stroke-width="7.88537" fill="none"/></g></g></g></g></svg>